<svg xmlns="http://www.w3.org/2000/svg" version="1.1" xmlns:xlink="http://www.w3.org/1999/xlink" xmlns:svgjs="http://svgjs.dev/svgjs" width="1000" height="1000" viewBox="0 0 1000 1000"><rect width="1000" height="1000" fill="#fbcd08"></rect><g transform="matrix(0.7,0,0,0.7,149.57575757575756,376.43930493819244)"><svg viewBox="0 0 396 140" data-background-color="#fbcd08" preserveAspectRatio="xMidYMid meet" height="353" width="1000" xmlns="http://www.w3.org/2000/svg" xmlns:xlink="http://www.w3.org/1999/xlink"><g id="tight-bounds" transform="matrix(1,0,0,1,0.2400000000000091,0.006059525103410124)"><svg viewBox="0 0 395.52 139.98788094979315" height="139.98788094979315" width="395.52"><g><svg viewBox="0 0 590.2304899809982 208.9024968760064" height="139.98788094979315" width="395.52"><g transform="matrix(1,0,0,1,0,28.871473880837357)"><svg viewBox="0 0 395.5199999999999 151.1595491143317" height="151.1595491143317" width="395.5199999999999"><g id="textblocktransform"><svg viewBox="0 0 395.5199999999999 151.1595491143317" height="151.1595491143317" width="395.5199999999999" id="textblock"><g><svg viewBox="0 0 395.5199999999999 151.1595491143317" height="151.1595491143317" width="395.5199999999999"><g transform="matrix(1,0,0,1,0,0)"><svg width="395.5199999999999" viewBox="0.75 -35 93.14 35.6" height="151.1595491143317" data-palette-color="#372e18"><path d="M11.3-35Q14.05-35 16.18-34.02 18.3-33.05 20.1-31.05L20.1-31.05 17.7-28.45Q16.15-29.95 14.65-30.63 13.15-31.3 11.35-31.3L11.35-31.3Q9.2-31.3 7.88-29.93 6.55-28.55 6.55-26.3L6.55-26.3Q6.55-24.1 7.83-22.7 9.1-21.3 12.65-19.95L12.65-19.95Q16.75-18.4 18.85-16.1 20.95-13.8 20.95-9.55L20.95-9.55Q20.95-6.8 19.68-4.48 18.4-2.15 16.05-0.78 13.7 0.6 10.6 0.6L10.6 0.6Q7.5 0.6 5.1-0.55 2.7-1.7 0.75-3.85L0.75-3.85 3.2-6.45Q4.95-4.85 6.68-4 8.4-3.15 10.5-3.15L10.5-3.15Q13.1-3.15 14.65-4.85 16.2-6.55 16.2-9.45L16.2-9.45Q16.2-11.95 14.95-13.45 13.7-14.95 10.3-16.2L10.3-16.2Q5.95-17.85 3.93-20.2 1.9-22.55 1.9-26.1L1.9-26.1Q1.9-28.55 3.1-30.6 4.3-32.65 6.45-33.83 8.6-35 11.3-35L11.3-35ZM36.9-35Q42.6-35 45.8-30.58 49-26.15 49-17.2L49-17.2Q49-8.35 45.8-3.88 42.6 0.6 36.9 0.6L36.9 0.6Q31.2 0.6 27.97-3.8 24.75-8.2 24.75-17.15L24.75-17.15Q24.75-26 28-30.5 31.25-35 36.9-35L36.9-35ZM36.9-31.3Q33.3-31.3 31.42-28 29.55-24.7 29.55-17.15L29.55-17.15Q29.55-9.65 31.45-6.4 33.35-3.15 36.9-3.15L36.9-3.15Q40.5-3.15 42.35-6.38 44.2-9.6 44.2-17.2L44.2-17.2Q44.2-24.75 42.35-28.03 40.5-31.3 36.9-31.3L36.9-31.3ZM55.05-34.45L59.6-34.45 59.6-4 71.05-4 70.55 0 55.05 0 55.05-34.45ZM92.99-34.45L85.39-18.6 93.89 0 89.09 0 82.64-15.55 76.24 0 71.64 0 79.99-18.35 72.34-34.45 77.14-34.45 82.74-21.2 88.44-34.45 92.99-34.45Z" opacity="1" transform="matrix(1,0,0,1,0,0)" fill="#372e18" class="wordmark-text-0" data-fill-palette-color="primary" id="text-0"></path></svg></g></svg></g></svg></g></svg></g><g transform="matrix(1,0,0,1,431.2051417167149,0)"><svg viewBox="0 0 159.02534826428325 208.9024968760064" height="208.9024968760064" width="159.02534826428325"><g><svg xmlns="http://www.w3.org/2000/svg" xmlns:xlink="http://www.w3.org/1999/xlink" version="1.1" x="0" y="0" viewBox="14.5 3.3 71.1 93.39999999999999" enable-background="new 0 0 100 100" xml:space="preserve" height="208.9024968760064" width="159.02534826428325" class="icon-icon-0" data-fill-palette-color="accent" id="icon-0"><path d="M52.1 84.4v8.1h12.2c1.2 0 2.1 1 2.1 2.1s-1 2.1-2.1 2.1H35.7c-1.2 0-2.1-1-2.1-2.1s1-2.1 2.1-2.1h12.2v-8.1H18.7c-2.3 0-4.2-1.9-4.2-4.2V39.9c0-2.3 1.9-4.2 4.2-4.2H33c1.2 0 2.1 1 2.1 2.1s-1 2.1-2.1 2.1H18.7l0 17.6v22.7l31.2 0c0 0 0 0 0.1 0 0 0 0 0 0.1 0l31.2 0 0-40.3-14.2 0c-1.2 0-2.1-1-2.1-2.1s1-2.1 2.1-2.1h14.3c2.3 0 4.2 1.9 4.2 4.2v40.3c0 2.3-1.9 4.2-4.2 4.2H52.1zM50.2 3.3c3.5 0.1 6.3 3 6.2 6.5-0.1 2.7-1.8 5-4.2 5.8v52.9c0 1.2-1 2.1-2.1 2.1-1.2 0-2.1-1-2.1-2.1V15.6c-0.9-0.3-1.8-0.9-2.5-1.6-1.2-1.2-1.8-2.8-1.8-4.5 0.1-3.4 2.9-6.2 6.4-6.2L50.2 3.3zM50.1 7.5L50.1 7.5c-1.2 0-2.1 0.9-2.2 2.1 0 0.6 0.2 1.1 0.6 1.5 0.4 0.4 0.9 0.6 1.5 0.7l0.1 0c1.1 0 2.1-0.9 2.1-2.1C52.1 8.5 51.2 7.6 50.1 7.5zM57.2 58.6V25.9c0-3.8 3.1-6.9 6.9-6.9h4.8c0.9-2.5 3.2-4.2 6-4.2 3.5 0 6.4 2.9 6.4 6.4s-2.9 6.4-6.4 6.4c-2.8 0-5.1-1.8-6-4.2h-4.8c-1.5 0-2.6 1.2-2.6 2.6v32.7c0 1.2-1 2.1-2.1 2.1C58.2 60.8 57.2 59.8 57.2 58.6zM72.8 21.2c0 1.2 0.9 2.1 2.1 2.1 1.2 0 2.1-0.9 2.1-2.1S76.1 19 74.9 19C73.7 19 72.8 20 72.8 21.2zM38.5 58.6V25.9c0-1.5-1.2-2.6-2.6-2.6h-4.8c-0.9 2.5-3.2 4.2-6 4.2-3.5 0-6.4-2.9-6.4-6.4s2.9-6.4 6.4-6.4c2.8 0 5.1 1.8 6 4.2h4.8c3.8 0 6.9 3.1 6.9 6.9v32.7c0 1.2-1 2.1-2.1 2.1S38.5 59.8 38.5 58.6zM27.2 21.2c0-1.2-0.9-2.1-2.1-2.1S23 20 23 21.2s0.9 2.1 2.1 2.1S27.2 22.3 27.2 21.2z" fill="#372e18" data-fill-palette-color="accent"></path></svg></g></svg></g></svg></g><defs></defs></svg><rect width="395.52" height="139.98788094979315" fill="none" stroke="none" visibility="hidden"></rect></g></svg></g></svg>